Coordinates
version=1
nRows=10
nColumns=46
inDegrees=yes

Units are S.I. units (second, meters, Newtons, ...)
Angles are in degrees.

endheader
time	pelvis_tilt	pelvis_list	pelvis_rotation	pelvis_tx	pelvis_ty	pelvis_tz	bb_angle	bb_tx	bb_ty	bb_tz	hip_flexion_r	hip_adduction_r	hip_rotation_r	knee_angle_r	knee_angle_r_beta	ankle_angle_r	subtalar_angle_r	mtp_angle_r	crank_angle_r	hip_flexion_l	hip_adduction_l	hip_rotation_l	knee_angle_l	knee_angle_l_beta	ankle_angle_l	subtalar_angle_l	mtp_angle_l	crank_angle_l	lumbar_extension	lumbar_bending	lumbar_rotation	arm_flex_r	arm_add_r	arm_rot_r	elbow_flex_r	pro_sup_r	wrist_flex_r	wrist_dev_r	arm_flex_l	arm_add_l	arm_rot_l	elbow_flex_l	pro_sup_l	wrist_flex_l	wrist_dev_l
      5.00500000	     -8.61147631	     -8.47270215	     -4.88549944	      0.10893815	      1.17156977	     -0.26556224	      0.00000000	      0.50000000	      0.00000000	      0.25000000	     88.92842330	     -6.76068790	     -2.64672006	    108.31117540	      1.89038663	      1.11560596	      6.76489077	      0.00000000	      0.00000000	     43.48048991	    -19.25543331	    -11.25917732	     49.31450606	      0.86070050	    -18.38237902	      4.14496112	      0.00000000	      0.00000000	    -63.23910821	      4.46013842	      5.58850769	     89.74529428	      0.68780225	     24.22202864	     37.27633066	     21.71393987	      0.00000000	      0.00000000	     89.75314717	     -7.45426816	     30.68220627	     33.91137186	     18.74063646	      0.00000000	      0.00000000
      5.01000000	     -8.82350835	     -8.48351804	     -5.08129999	      0.10822930	      1.17227440	     -0.26585424	      0.00000000	      0.50000000	      0.00000000	      0.25000000	     88.80796778	     -6.29510274	     -2.74719299	    107.00270762	      1.86754956	      2.13448169	      7.07100770	      0.00000000	      0.00000000	     44.09103517	    -19.46102228	    -11.01728226	     50.62307631	      0.88353936	    -21.11413707	      3.89293220	      0.00000000	      0.00000000	    -63.22663452	      4.65509324	      5.54388383	     89.74740561	      1.06781262	     24.22059665	     37.70584706	     21.68992442	      0.00000000	      0.00000000	     89.74842758	     -7.95596327	     30.50071258	     34.03703715	     18.77151392	      0.00000000	      0.00000000
      5.01500000	     -8.88507281	     -8.34300993	     -5.23118035	      0.10763365	      1.17317515	     -0.26592681	      0.00000000	      0.50000000	      0.00000000	      0.25000000	     88.42519611	     -5.91869033	     -2.74527775	    105.62882877	      1.84357085	      3.18875399	      7.21860277	      0.00000000	      0.00000000	     44.59891166	    -19.66094968	    -11.00188895	     52.04605006	      0.90837494	    -21.52424029	      2.89784178	      0.00000000	      0.00000000	    -63.31463000	      4.64665372	      5.37012568	     89.74857707	      1.31022238	     24.18421132	     37.99053124	     21.64531839	      0.00000000	      0.00000000	     89.74673778	     -8.28766285	     30.36065041	     34.18043247	     18.80578998	      0.00000000	      0.00000000
      5.02000000	     -8.94588641	     -8.20900568	     -5.38824512	      0.10697449	      1.17387060	     -0.26575037	      0.00000000	      0.50000000	      0.00000000	      0.25000000	     87.88679014	     -5.50934029	     -2.75662404	    104.13364019	      1.81747488	      4.38017377	      7.33118675	      0.00000000	      0.00000000	     45.20402265	    -19.92417009	    -10.99302827	     53.60442620	      0.93557373	    -22.15642385	      2.02728242	      0.00000000	      0.00000000	    -63.37863611	      4.59819335	      5.18890223	     89.75065833	      1.55593657	     24.15788600	     38.24378283	     21.60882044	      0.00000000	      0.00000000	     89.74753178	     -8.60186251	     30.21438602	     34.29915110	     18.83228407	      0.00000000	      0.00000000
      5.02500000	     -8.94442427	     -7.82924525	     -5.45488321	      0.10637752	      1.17455290	     -0.26566311	      0.00000000	      0.50000000	      0.00000000	      0.25000000	     87.22361805	     -5.28845686	     -2.55032880	    102.56755480	      1.79014154	      5.50813607	      7.30013193	      0.00000000	      0.00000000	     45.73514066	    -19.85852828	    -10.93547135	     55.15902164	      0.96270654	    -22.97113152	      1.70777205	      0.00000000	      0.00000000	    -63.42165088	      4.39585702	      4.81610595	     89.75019803	      1.62904328	     24.13005152	     38.39591784	     21.60270567	      0.00000000	      0.00000000	     89.75350611	     -8.71957091	     30.14455339	     34.34613158	     18.84138966	      0.00000000	      0.00000000
      5.03000000	     -9.06828002	     -7.79160178	     -5.61450199	      0.10577329	      1.17498195	     -0.26529727	      0.00000000	      0.50000000	      0.00000000	      0.25000000	     86.37705857	     -4.88964072	     -2.69485018	    100.76562714	      1.75869197	      7.09225218	      7.68920914	      0.00000000	      0.00000000	     46.59121707	    -20.22886854	    -10.78462861	     56.91442141	      0.99334405	    -23.98215733	      0.80497719	      0.00000000	      0.00000000	    -63.43820536	      4.47027149	      4.76320915	     89.75177459	      2.01689924	     24.13082172	     38.64701698	     21.57453411	      0.00000000	      0.00000000	     89.75122917	     -9.14813263	     29.92713923	     34.49768621	     18.86845258	      0.00000000	      0.00000000
      5.03500000	     -9.08715939	     -7.45619879	     -5.63734250	      0.10520029	      1.17522392	     -0.26491323	      0.00000000	      0.50000000	      0.00000000	      0.25000000	     85.44714004	     -4.76632129	     -2.64813802	     98.95290503	      1.72705400	      8.47554749	      7.58640879	      0.00000000	      0.00000000	     47.33385735	    -20.24284418	    -10.68620409	     58.68142488	      1.02418407	    -24.80157490	      0.46732837	      0.00000000	      0.00000000	    -63.45148276	      4.25281858	      4.37579482	     89.75195575	      2.18241183	     24.06500653	     38.78820207	     21.54148875	      0.00000000	      0.00000000	     89.74914735	     -9.29349228	     29.84284129	     34.60296802	     18.88987683	      0.00000000	      0.00000000
      5.04000000	     -9.09061117	     -7.06042976	     -5.65731205	      0.10471474	      1.17538891	     -0.26446561	      0.00000000	      0.50000000	      0.00000000	      0.25000000	     84.39399577	     -4.67576272	     -2.57595078	     96.99164286	      1.69282351	      9.69694369	      7.51489275	      0.00000000	      0.00000000	     48.07728931	    -20.21829412	    -10.62024561	     60.50552930	      1.05602070	    -25.41177606	      0.03375879	      0.00000000	      0.00000000	    -63.43702338	      3.99028319	      3.93730439	     89.74758778	      2.29806830	     24.01004290	     38.88778091	     21.52069028	      0.00000000	      0.00000000	     89.75215355	     -9.38657859	     29.78652804	     34.66651401	     18.90229215	      0.00000000	      0.00000000
      5.04500000	     -9.17053214	     -6.87048689	     -5.67621561	      0.10419590	      1.17532983	     -0.26388426	      0.00000000	      0.50000000	      0.00000000	      0.25000000	     83.22832641	     -4.50900383	     -2.71403578	     94.83003171	      1.65509628	     10.96687625	      7.65202234	      0.00000000	      0.00000000	     49.03672288	    -20.39418336	    -10.39360243	     62.43570162	      1.08970856	    -26.08233767	     -0.93061760	      0.00000000	      0.00000000	    -63.36988648	      3.90012129	      3.73379229	     89.75024825	      2.56707602	     23.92981240	     38.95406665	     21.46788594	      0.00000000	      0.00000000	     89.75073701	     -9.63919279	     29.65786822	     34.79526285	     18.92632082	      0.00000000	      0.00000000
      5.05000000	     -9.14099766	     -6.54674088	     -5.60314646	      0.10396654	      1.17520053	     -0.26319604	      0.00000000	      0.50000000	      0.00000000	      0.25000000	     81.94637074	     -4.54336555	     -2.82150330	     92.69809191	      1.61788691	     12.11013185	      7.68366582	      0.00000000	      0.00000000	     49.88087222	    -20.42330032	    -10.23031722	     64.40356741	      1.12405430	    -26.56939196	     -1.43157719	      0.00000000	      0.00000000	    -63.36245804	      3.71327628	      3.36758742	     89.74661789	      2.74629351	     23.81992212	     38.92932729	     21.40285902	      0.00000000	      0.00000000	     89.75039359	     -9.75299471	     29.58183340	     34.89653996	     18.94713490	      0.00000000	      0.00000000
